# xmcd CD database file
#
# Track frame offsets:
#	150
#	9880
#	21915
#	32380
#	44977
#	56635
#	68607
#	80717
#	91282
#	104597
#	116807
#	130975
#	142557
#	153725
#	171872
#	185170
#	204665
#	219352
#	236712
#	247555
#
# Disc length: 3462 seconds
#
# Revision: 12
# Processed by: cddbd v1.5.2PL0 Copyright (c) Steve Scherf et al.
# Submitted via: CDex 1.51
#
DISCID=150d8414
DTITLE=Otis Redding - tld THE DOCK OF THE BAY
DYEAR=1987
DGENRE=Soul
TTITLE0=Respect
TTITLE1=Mr. Pitiful
TTITLE2=Love Man
TTITLE3=(I can't get no) Satisfaction
TTITLE4=Security
TTITLE5=I Can't Turn You Loose
TTITLE6=Shake
TTITLE7=Hard To Handle
TTITLE8=Tramp
TTITLE9=Fa-Fa-Fa-Fa-Fa (sad song)
TTITLE10=My Lover's Prayer
TTITLE11=These Arms Of Mine
TTITLE12=That's How Strong My Love Is
TTITLE13=Cigarettes And Coffee
TTITLE14=My Girl
TTITLE15=A Change Is Gonna Come
TTITLE16=I've Been Loving You Too Long
TTITLE17=Try A Little Tenderness
TTITLE18=Pain In My Heart
TTITLE19=(sittin' on) The Dock Of The Bay
EXTD=YEAR: 1987
EXTT0=
EXTT1=
EXTT2=
EXTT3=
EXTT4=
EXTT5=
EXTT6=
EXTT7=
EXTT8=
EXTT9=
EXTT10=
EXTT11=
EXTT12=
EXTT13=
EXTT14=
EXTT15=
EXTT16=
EXTT17=
EXTT18=
EXTT19=
PLAYORDER=
